<svg width="723" height="164" viewBox="0 0 723 164" fill="none" xmlns="http://www.w3.org/2000/svg">
<path d="M154.72 87C154.213 87 153.8 86.84 153.48 86.52C153.16 86.2 153 85.7867 153 85.28V57.48C153 56.9733 153.16 56.56 153.48 56.24C153.8 55.92 154.213 55.76 154.72 55.76H176C176.507 55.76 176.92 55.92 177.24 56.24C177.56 56.56 177.72 56.9733 177.72 57.48V85.28C177.72 85.7867 177.56 86.2 177.24 86.52C176.92 86.84 176.507 87 176 87C175.493 87 175.08 86.84 174.76 86.52C174.44 86.2 174.28 85.7867 174.28 85.28V58.92H156.44V85.28C156.44 85.7867 156.28 86.2 155.96 86.52C155.64 86.84 155.227 87 154.72 87ZM185.094 96.56C184.534 96.5867 183.974 96.52 183.414 96.36C182.881 96.2 182.348 95.9733 181.814 95.68C181.334 95.3867 181.028 95.0133 180.894 94.56C180.734 94.1067 180.814 93.68 181.134 93.28C181.401 92.9067 181.734 92.6933 182.134 92.64C182.561 92.6133 183.001 92.72 183.454 92.96C183.748 93.12 184.028 93.24 184.294 93.32C184.588 93.4 184.908 93.44 185.254 93.44C186.108 93.44 186.934 93.0267 187.734 92.2C188.561 91.3733 189.321 90.16 190.014 88.56L199.854 66C200.041 65.5733 200.334 65.28 200.734 65.12C201.161 64.96 201.601 64.9733 202.054 65.16C202.428 65.3467 202.681 65.64 202.814 66.04C202.948 66.44 202.908 66.88 202.694 67.36L192.814 89.92C191.908 91.8933 190.774 93.4933 189.414 94.72C188.081 95.9467 186.641 96.56 185.094 96.56ZM193.654 86.24C193.228 86.4533 192.828 86.4933 192.454 86.36C192.081 86.2267 191.774 85.9333 191.534 85.48L182.574 67.36C182.361 66.9067 182.321 66.4933 182.454 66.12C182.614 65.7467 182.908 65.4533 183.334 65.24C183.788 65.0533 184.201 65.0267 184.574 65.16C184.948 65.2933 185.241 65.5733 185.454 66L194.254 84.08C194.468 84.5067 194.534 84.9333 194.454 85.36C194.374 85.76 194.108 86.0533 193.654 86.24ZM236.881 87C236.374 87 235.961 86.8533 235.641 86.56C235.321 86.24 235.161 85.8267 235.161 85.32V73.84C235.161 72 234.694 70.5733 233.761 69.56C232.828 68.5467 231.614 68.04 230.121 68.04C228.548 68.04 227.254 68.5733 226.241 69.64C225.254 70.7067 224.761 72.1067 224.761 73.84H221.841C221.868 72.0533 222.254 70.4933 223.001 69.16C223.748 67.8 224.774 66.7467 226.081 66C227.414 65.2533 228.921 64.88 230.601 64.88C232.148 64.88 233.521 65.24 234.721 65.96C235.921 66.68 236.854 67.72 237.521 69.08C238.214 70.4133 238.561 72 238.561 73.84V85.32C238.561 85.8267 238.401 86.24 238.081 86.56C237.761 86.8533 237.361 87 236.881 87ZM209.281 87C208.748 87 208.321 86.8533 208.001 86.56C207.708 86.24 207.561 85.8267 207.561 85.32V66.84C207.561 66.3333 207.708 65.92 208.001 65.6C208.321 65.28 208.748 65.12 209.281 65.12C209.788 65.12 210.188 65.28 210.481 65.6C210.801 65.92 210.961 66.3333 210.961 66.84V85.32C210.961 85.8267 210.801 86.24 210.481 86.56C210.188 86.8533 209.788 87 209.281 87ZM223.081 87C222.601 87 222.201 86.8533 221.881 86.56C221.561 86.24 221.401 85.8267 221.401 85.32V73.84C221.401 72 220.921 70.5733 219.961 69.56C219.028 68.5467 217.828 68.04 216.361 68.04C214.788 68.04 213.494 68.56 212.481 69.6C211.468 70.64 210.961 72 210.961 73.68H208.641C208.694 71.9467 209.068 70.4267 209.761 69.12C210.454 67.7867 211.414 66.7467 212.641 66C213.868 65.2533 215.268 64.88 216.841 64.88C218.388 64.88 219.761 65.24 220.961 65.96C222.161 66.68 223.094 67.72 223.761 69.08C224.428 70.4133 224.761 72 224.761 73.84V85.32C224.761 85.8267 224.601 86.24 224.281 86.56C223.988 86.8533 223.588 87 223.081 87ZM254.814 87.4C252.921 87.4 251.268 87.0533 249.854 86.36C248.441 85.64 247.334 84.6667 246.534 83.44C245.734 82.1867 245.334 80.72 245.334 79.04V66.8C245.361 66.2933 245.534 65.8933 245.854 65.6C246.174 65.28 246.574 65.12 247.054 65.12C247.534 65.12 247.934 65.28 248.254 65.6C248.574 65.92 248.734 66.3333 248.734 66.84V72.12H255.254C256.988 72.12 258.521 72.4267 259.854 73.04C261.188 73.6533 262.228 74.52 262.974 75.64C263.748 76.76 264.134 78.08 264.134 79.6C264.134 81.0933 263.748 82.4267 262.974 83.6C262.201 84.7733 261.108 85.7067 259.694 86.4C258.308 87.0667 256.681 87.4 254.814 87.4ZM254.774 84.28C256.508 84.28 257.948 83.8933 259.094 83.12C260.241 82.32 260.814 81.1467 260.814 79.6C260.814 78.1333 260.308 77.0133 259.294 76.24C258.308 75.44 256.961 75.04 255.254 75.04H248.734V79C248.734 80.0133 248.988 80.92 249.494 81.72C250.001 82.52 250.708 83.1467 251.614 83.6C252.521 84.0533 253.574 84.28 254.774 84.28ZM290.517 87.24C288.623 87.24 286.93 86.8533 285.437 86.08C283.97 85.28 282.81 84.12 281.957 82.6C281.103 81.08 280.677 79.2133 280.677 77V66.8C280.677 66.32 280.837 65.92 281.157 65.6C281.477 65.28 281.877 65.12 282.357 65.12C282.837 65.12 283.237 65.28 283.557 65.6C283.877 65.92 284.037 66.32 284.037 66.8V77C284.037 78.6267 284.343 79.96 284.957 81C285.57 82.0133 286.397 82.7867 287.437 83.32C288.477 83.8267 289.65 84.08 290.957 84.08C292.21 84.08 293.343 83.84 294.357 83.36C295.37 82.8533 296.17 82.1867 296.757 81.36C297.343 80.5067 297.637 79.5333 297.637 78.44H299.917C299.863 80.12 299.423 81.6267 298.597 82.96C297.77 84.2667 296.65 85.3067 295.237 86.08C293.823 86.8533 292.25 87.24 290.517 87.24ZM299.317 87C298.81 87 298.397 86.8533 298.077 86.56C297.783 86.24 297.637 85.8133 297.637 85.28V66.8C297.637 66.2933 297.783 65.8933 298.077 65.6C298.397 65.28 298.81 65.12 299.317 65.12C299.823 65.12 300.237 65.28 300.557 65.6C300.877 65.8933 301.037 66.2933 301.037 66.8V85.28C301.037 85.8133 300.877 86.24 300.557 86.56C300.237 86.8533 299.823 87 299.317 87ZM315.305 87.36C314.132 87.36 312.998 87.2133 311.905 86.92C310.812 86.6267 309.825 86.2133 308.945 85.68C308.065 85.1467 307.358 84.5733 306.825 83.96C306.505 83.5867 306.358 83.1867 306.385 82.76C306.438 82.3067 306.678 81.9333 307.105 81.64C307.425 81.4267 307.812 81.36 308.265 81.44C308.745 81.52 309.145 81.72 309.465 82.04C310.105 82.68 310.918 83.2267 311.905 83.68C312.918 84.1067 314.038 84.32 315.265 84.32C316.838 84.32 318.105 83.9867 319.065 83.32C320.025 82.6533 320.505 81.7467 320.505 80.6C320.505 79.5867 320.132 78.76 319.385 78.12C318.638 77.4533 317.718 77.0933 316.625 77.04H314.505C313.972 77.04 313.532 76.9067 313.185 76.64C312.865 76.3733 312.705 76.04 312.705 75.64C312.705 75.24 312.865 74.92 313.185 74.68C313.532 74.4133 313.972 74.28 314.505 74.28H316.625C317.585 74.2267 318.345 73.9067 318.905 73.32C319.465 72.7067 319.745 71.9467 319.745 71.04C319.745 70.1067 319.332 69.36 318.505 68.8C317.705 68.2133 316.598 67.92 315.185 67.92C313.932 67.92 312.852 68.12 311.945 68.52C311.038 68.8933 310.305 69.4133 309.745 70.08C309.425 70.4267 309.052 70.6267 308.625 70.68C308.198 70.7333 307.798 70.64 307.425 70.4C307.078 70.1867 306.892 69.8667 306.865 69.44C306.865 68.9867 307.025 68.5733 307.345 68.2C308.198 67.24 309.292 66.44 310.625 65.8C311.985 65.16 313.478 64.84 315.105 64.84C316.652 64.84 318.012 65.1067 319.185 65.64C320.385 66.1733 321.318 66.8933 321.985 67.8C322.678 68.7067 323.025 69.7067 323.025 70.8C323.025 71.7067 322.785 72.52 322.305 73.24C321.852 73.96 321.225 74.5467 320.425 75C319.625 75.4267 318.745 75.6667 317.785 75.72V75.32C318.905 75.32 319.918 75.56 320.825 76.04C321.732 76.52 322.452 77.1733 322.985 78C323.518 78.8 323.785 79.7067 323.785 80.72C323.785 81.9733 323.412 83.1067 322.665 84.12C321.945 85.1067 320.945 85.8933 319.665 86.48C318.385 87.0667 316.932 87.36 315.305 87.36ZM338.847 87.2C336.714 87.2 334.834 86.7333 333.207 85.8C331.581 84.8667 330.301 83.5733 329.367 81.92C328.434 80.2667 327.967 78.3733 327.967 76.24H329.687C329.687 74.2933 330.101 72.5867 330.927 71.12C331.754 69.6267 332.887 68.4667 334.327 67.64C335.767 66.7867 337.421 66.36 339.287 66.36C341.261 66.36 343.007 66.8 344.527 67.68C346.074 68.56 347.287 69.7867 348.167 71.36C349.047 72.9067 349.487 74.6933 349.487 76.72C349.487 78.7733 349.034 80.5867 348.127 82.16C347.221 83.7333 345.967 84.9733 344.367 85.88C342.767 86.76 340.927 87.2 338.847 87.2ZM338.847 84.16C340.287 84.16 341.554 83.84 342.647 83.2C343.741 82.56 344.594 81.6933 345.207 80.6C345.847 79.48 346.167 78.1867 346.167 76.72C346.167 75.28 345.847 74.0133 345.207 72.92C344.594 71.8267 343.741 70.9733 342.647 70.36C341.554 69.72 340.287 69.4 338.847 69.4C337.354 69.4 336.034 69.72 334.887 70.36C333.767 70.9733 332.887 71.8267 332.247 72.92C331.607 74.0133 331.287 75.28 331.287 76.72C331.287 78.1867 331.607 79.48 332.247 80.6C332.887 81.6933 333.767 82.56 334.887 83.2C336.034 83.84 337.354 84.16 338.847 84.16ZM327.967 76.32V72.64C327.994 69.2267 328.914 66.1467 330.727 63.4C332.567 60.6533 335.407 58.4933 339.247 56.92L345.647 54.32C346.101 54.1333 346.501 54.1067 346.847 54.24C347.194 54.3733 347.461 54.6533 347.647 55.08C347.781 55.5333 347.794 55.9333 347.687 56.28C347.581 56.6267 347.247 56.92 346.687 57.16L339.847 60.08C337.661 60.96 335.887 62.0667 334.527 63.4C333.167 64.7067 332.167 66.1867 331.527 67.84C330.914 69.4667 330.607 71.2 330.607 73.04V76.32H327.967ZM357.211 96.36C356.677 96.36 356.251 96.2 355.931 95.88C355.637 95.5867 355.491 95.1733 355.491 94.64V75.96C355.517 73.88 356.011 72.0133 356.971 70.36C357.957 68.68 359.277 67.36 360.931 66.4C362.584 65.4133 364.451 64.92 366.531 64.92C368.664 64.92 370.557 65.4133 372.211 66.4C373.891 67.36 375.211 68.68 376.171 70.36C377.157 72.04 377.651 73.9467 377.651 76.08C377.651 78.1867 377.184 80.08 376.251 81.76C375.344 83.44 374.091 84.7733 372.491 85.76C370.891 86.72 369.077 87.2 367.051 87.2C365.317 87.2 363.744 86.84 362.331 86.12C360.917 85.3733 359.771 84.4 358.891 83.2V94.64C358.891 95.1733 358.731 95.5867 358.411 95.88C358.091 96.2 357.691 96.36 357.211 96.36ZM366.531 84.16C368.024 84.16 369.357 83.8133 370.531 83.12C371.731 82.4 372.664 81.4267 373.331 80.2C374.024 78.9733 374.371 77.6 374.371 76.08C374.371 74.5333 374.024 73.16 373.331 71.96C372.664 70.7333 371.731 69.76 370.531 69.04C369.357 68.32 368.024 67.96 366.531 67.96C365.091 67.96 363.771 68.32 362.571 69.04C361.397 69.76 360.477 70.7333 359.811 71.96C359.144 73.16 358.811 74.5333 358.811 76.08C358.811 77.6 359.144 78.9733 359.811 80.2C360.477 81.4267 361.397 82.4 362.571 83.12C363.744 83.8133 365.064 84.16 366.531 84.16ZM393.213 87.2C391.186 87.2 389.373 86.72 387.773 85.76C386.173 84.7733 384.906 83.44 383.973 81.76C383.039 80.08 382.573 78.1867 382.573 76.08C382.573 73.9467 383.053 72.04 384.013 70.36C384.999 68.68 386.333 67.36 388.013 66.4C389.693 65.4133 391.586 64.92 393.693 64.92C395.773 64.92 397.639 65.4133 399.293 66.4C400.973 67.36 402.293 68.68 403.253 70.36C404.239 72.04 404.746 73.9467 404.773 76.08L403.413 76.76C403.413 78.7333 402.959 80.5067 402.053 82.08C401.173 83.6533 399.959 84.9067 398.413 85.84C396.893 86.7467 395.159 87.2 393.213 87.2ZM393.693 84.16C395.186 84.16 396.506 83.8133 397.653 83.12C398.826 82.4 399.746 81.4267 400.413 80.2C401.106 78.9733 401.453 77.6 401.453 76.08C401.453 74.5333 401.106 73.16 400.413 71.96C399.746 70.7333 398.826 69.76 397.653 69.04C396.506 68.32 395.186 67.96 393.693 67.96C392.226 67.96 390.893 68.32 389.693 69.04C388.519 69.76 387.586 70.7333 386.893 71.96C386.199 73.16 385.853 74.5333 385.853 76.08C385.853 77.6 386.199 78.9733 386.893 80.2C387.586 81.4267 388.519 82.4 389.693 83.12C390.893 83.8133 392.226 84.16 393.693 84.16ZM403.053 87C402.573 87 402.159 86.8533 401.813 86.56C401.493 86.24 401.333 85.8267 401.333 85.32V78.72L402.093 75.24L404.773 76.08V85.32C404.773 85.8267 404.613 86.24 404.293 86.56C403.973 86.8533 403.559 87 403.053 87ZM429.404 87C428.897 87 428.484 86.8533 428.164 86.56C427.844 86.24 427.684 85.8133 427.684 85.28V66.84C427.684 66.3067 427.844 65.8933 428.164 65.6C428.484 65.28 428.897 65.12 429.404 65.12C429.884 65.12 430.271 65.28 430.564 65.6C430.857 65.8933 431.004 66.3067 431.004 66.84V85.28C431.004 85.8133 430.857 86.24 430.564 86.56C430.271 86.8533 429.884 87 429.404 87ZM412.404 87C411.924 87 411.524 86.8533 411.204 86.56C410.911 86.24 410.764 85.8133 410.764 85.28V66.84C410.764 66.3067 410.911 65.8933 411.204 65.6C411.524 65.28 411.924 65.12 412.404 65.12C412.911 65.12 413.311 65.28 413.604 65.6C413.924 65.8933 414.084 66.3067 414.084 66.84V85.28C414.084 85.8133 413.924 86.24 413.604 86.56C413.311 86.8533 412.911 87 412.404 87ZM413.564 77.4V74.36H428.764V77.4H413.564ZM456.826 87C456.319 87 455.906 86.8533 455.586 86.56C455.266 86.24 455.106 85.8133 455.106 85.28V66.84C455.106 66.3067 455.266 65.8933 455.586 65.6C455.906 65.28 456.319 65.12 456.826 65.12C457.306 65.12 457.693 65.28 457.986 65.6C458.279 65.8933 458.426 66.3067 458.426 66.84V85.28C458.426 85.8133 458.279 86.24 457.986 86.56C457.693 86.8533 457.306 87 456.826 87ZM439.826 87C439.346 87 438.946 86.8533 438.626 86.56C438.333 86.24 438.186 85.8133 438.186 85.28V66.84C438.186 66.3067 438.333 65.8933 438.626 65.6C438.946 65.28 439.346 65.12 439.826 65.12C440.333 65.12 440.733 65.28 441.026 65.6C441.346 65.8933 441.506 66.3067 441.506 66.84V85.28C441.506 85.8133 441.346 86.24 441.026 86.56C440.733 86.8533 440.333 87 439.826 87ZM440.986 77.4V74.36H456.186V77.4H440.986ZM475.568 87.2C473.408 87.2 471.488 86.72 469.808 85.76C468.154 84.8 466.848 83.48 465.888 81.8C464.928 80.12 464.448 78.2133 464.448 76.08C464.448 73.92 464.928 72 465.888 70.32C466.848 68.64 468.154 67.32 469.808 66.36C471.488 65.4 473.408 64.92 475.568 64.92C477.701 64.92 479.594 65.4 481.248 66.36C482.901 67.32 484.208 68.64 485.168 70.32C486.128 72 486.621 73.92 486.648 76.08C486.648 78.2133 486.168 80.12 485.208 81.8C484.248 83.48 482.928 84.8 481.248 85.76C479.594 86.72 477.701 87.2 475.568 87.2ZM475.568 84.16C477.061 84.16 478.394 83.8133 479.568 83.12C480.741 82.4 481.661 81.44 482.328 80.24C482.994 79.0133 483.328 77.6267 483.328 76.08C483.328 74.5333 482.994 73.1467 482.328 71.92C481.661 70.6933 480.741 69.7333 479.568 69.04C478.394 68.32 477.061 67.96 475.568 67.96C474.074 67.96 472.728 68.32 471.528 69.04C470.354 69.7333 469.421 70.6933 468.728 71.92C468.061 73.1467 467.728 74.5333 467.728 76.08C467.728 77.6267 468.061 79.0133 468.728 80.24C469.421 81.44 470.354 82.4 471.528 83.12C472.728 83.8133 474.074 84.16 475.568 84.16ZM499.359 87.2C497.732 87.2 496.279 86.96 494.999 86.48C493.746 85.9733 492.746 85.28 491.999 84.4C491.252 83.4933 490.879 82.44 490.879 81.24C490.879 80.1467 491.172 79.1867 491.759 78.36C492.346 77.5333 493.252 76.8133 494.479 76.2C495.732 75.5867 497.319 75.08 499.239 74.68C501.052 74.28 502.292 73.7867 502.959 73.2C503.626 72.5867 503.959 71.8267 503.959 70.92C503.959 70.0133 503.546 69.2933 502.719 68.76C501.892 68.2 500.826 67.92 499.519 67.92C498.452 67.92 497.452 68.1067 496.519 68.48C495.586 68.8267 494.812 69.3333 494.199 70C493.852 70.3467 493.479 70.5733 493.079 70.68C492.679 70.76 492.346 70.72 492.079 70.56C491.626 70.2933 491.346 69.9467 491.239 69.52C491.159 69.0933 491.266 68.7067 491.559 68.36C492.332 67.32 493.399 66.4933 494.759 65.88C496.146 65.24 497.719 64.92 499.479 64.92C500.972 64.92 502.306 65.16 503.479 65.64C504.652 66.0933 505.572 66.7733 506.239 67.68C506.906 68.5867 507.239 69.7067 507.239 71.04C507.239 72.4533 506.666 73.7067 505.519 74.8C504.399 75.8667 502.599 76.68 500.119 77.24C497.879 77.72 496.346 78.2667 495.519 78.88C494.692 79.4933 494.279 80.2667 494.279 81.2C494.279 82.16 494.692 82.8933 495.519 83.4C496.346 83.9067 497.599 84.16 499.279 84.16C500.639 84.16 501.826 84 502.839 83.68C503.879 83.36 504.719 82.84 505.359 82.12C505.679 81.8 506.039 81.5867 506.439 81.48C506.839 81.3733 507.252 81.48 507.679 81.8C508.052 82.12 508.239 82.4933 508.239 82.92C508.266 83.32 508.119 83.6933 507.799 84.04C506.892 85 505.666 85.7733 504.119 86.36C502.572 86.92 500.986 87.2 499.359 87.2ZM523.38 87.2C521.22 87.2 519.3 86.72 517.62 85.76C515.967 84.8 514.66 83.48 513.7 81.8C512.74 80.12 512.26 78.2133 512.26 76.08C512.26 73.92 512.74 72 513.7 70.32C514.66 68.64 515.967 67.32 517.62 66.36C519.3 65.4 521.22 64.92 523.38 64.92C525.514 64.92 527.407 65.4 529.06 66.36C530.714 67.32 532.02 68.64 532.98 70.32C533.94 72 534.434 73.92 534.46 76.08C534.46 78.2133 533.98 80.12 533.02 81.8C532.06 83.48 530.74 84.8 529.06 85.76C527.407 86.72 525.514 87.2 523.38 87.2ZM523.38 84.16C524.874 84.16 526.207 83.8133 527.38 83.12C528.554 82.4 529.474 81.44 530.14 80.24C530.807 79.0133 531.14 77.6267 531.14 76.08C531.14 74.5333 530.807 73.1467 530.14 71.92C529.474 70.6933 528.554 69.7333 527.38 69.04C526.207 68.32 524.874 67.96 523.38 67.96C521.887 67.96 520.54 68.32 519.34 69.04C518.167 69.7333 517.234 70.6933 516.54 71.92C515.874 73.1467 515.54 74.5333 515.54 76.08C515.54 77.6267 515.874 79.0133 516.54 80.24C517.234 81.44 518.167 82.4 519.34 83.12C520.54 83.8133 521.887 84.16 523.38 84.16ZM570.81 87C570.304 87 569.89 86.8533 569.57 86.56C569.25 86.24 569.09 85.8133 569.09 85.28V66.84C569.09 66.3067 569.25 65.8933 569.57 65.6C569.89 65.28 570.304 65.12 570.81 65.12C571.29 65.12 571.677 65.28 571.97 65.6C572.264 65.8933 572.41 66.3067 572.41 66.84V85.28C572.41 85.8133 572.264 86.24 571.97 86.56C571.677 86.8533 571.29 87 570.81 87ZM553.81 87C553.33 87 552.93 86.8533 552.61 86.56C552.317 86.24 552.17 85.8133 552.17 85.28V66.84C552.17 66.3067 552.317 65.8933 552.61 65.6C552.93 65.28 553.33 65.12 553.81 65.12C554.317 65.12 554.717 65.28 555.01 65.6C555.33 65.8933 555.49 66.3067 555.49 66.84V85.28C555.49 85.8133 555.33 86.24 555.01 86.56C554.717 86.8533 554.317 87 553.81 87ZM554.97 77.4V74.36H570.17V77.4H554.97ZM589.632 87.2C587.446 87.2 585.512 86.7333 583.832 85.8C582.152 84.84 580.832 83.52 579.872 81.84C578.912 80.16 578.432 78.24 578.432 76.08C578.432 73.8933 578.886 71.9733 579.792 70.32C580.699 68.64 581.939 67.32 583.512 66.36C585.112 65.4 586.952 64.92 589.032 64.92C591.059 64.92 592.819 65.3867 594.312 66.32C595.832 67.2267 596.992 68.4933 597.792 70.12C598.619 71.7467 599.032 73.6 599.032 75.68C599.032 76.1333 598.886 76.5067 598.592 76.8C598.299 77.0667 597.926 77.2 597.472 77.2H580.752V74.44H597.672L595.952 75.64C595.979 74.1733 595.712 72.8533 595.152 71.68C594.592 70.5067 593.792 69.5867 592.752 68.92C591.712 68.2533 590.472 67.92 589.032 67.92C587.512 67.92 586.179 68.2667 585.032 68.96C583.912 69.6533 583.046 70.6267 582.432 71.88C581.846 73.1067 581.552 74.5067 581.552 76.08C581.552 77.6533 581.899 79.0533 582.592 80.28C583.286 81.5067 584.232 82.4667 585.432 83.16C586.659 83.8533 588.059 84.2 589.632 84.2C590.539 84.2 591.459 84.04 592.392 83.72C593.352 83.4 594.112 83 594.672 82.52C594.992 82.28 595.352 82.16 595.752 82.16C596.179 82.1333 596.526 82.24 596.792 82.48C597.192 82.8267 597.392 83.2 597.392 83.6C597.419 84 597.246 84.3467 596.872 84.64C595.992 85.3867 594.872 86 593.512 86.48C592.152 86.96 590.859 87.2 589.632 87.2ZM615.11 87C614.603 87 614.19 86.8533 613.87 86.56C613.576 86.24 613.43 85.8267 613.43 85.32V77.48H610.11L603.59 86.52C603.35 86.8667 602.976 87.0267 602.47 87C601.99 87 601.603 86.8533 601.31 86.56C600.99 86.24 600.83 85.8933 600.83 85.52C600.856 85.1467 600.99 84.7867 601.23 84.44L607.35 75.88L601.83 67.64C601.616 67.2667 601.51 66.8933 601.51 66.52C601.51 66.1467 601.683 65.8 602.03 65.48C602.323 65.2133 602.696 65.0933 603.15 65.12C603.63 65.12 603.99 65.2933 604.23 65.64L609.99 74.48H613.43V66.84C613.43 66.3067 613.576 65.8933 613.87 65.6C614.19 65.28 614.603 65.12 615.11 65.12C615.616 65.12 616.016 65.28 616.31 65.6C616.63 65.8933 616.79 66.3067 616.79 66.84V74.48H620.19L625.99 65.64C626.23 65.2933 626.576 65.12 627.03 65.12C627.51 65.0933 627.883 65.2133 628.15 65.48C628.496 65.8 628.67 66.1467 628.67 66.52C628.696 66.8933 628.59 67.2667 628.35 67.64L622.87 75.88L628.99 84.44C629.23 84.7867 629.363 85.1467 629.39 85.52C629.416 85.8933 629.256 86.24 628.91 86.56C628.616 86.8533 628.216 87 627.71 87C627.23 87.0267 626.87 86.8667 626.63 86.52L620.15 77.48H616.79V85.32C616.79 85.8267 616.63 86.24 616.31 86.56C616.016 86.8533 615.616 87 615.11 87ZM643.837 87.24C641.944 87.24 640.25 86.8533 638.757 86.08C637.29 85.28 636.13 84.12 635.277 82.6C634.424 81.08 633.997 79.2133 633.997 77V66.8C633.997 66.32 634.157 65.92 634.477 65.6C634.797 65.28 635.197 65.12 635.677 65.12C636.157 65.12 636.557 65.28 636.877 65.6C637.197 65.92 637.357 66.32 637.357 66.8V77C637.357 78.6267 637.664 79.96 638.277 81C638.89 82.0133 639.717 82.7867 640.757 83.32C641.797 83.8267 642.97 84.08 644.277 84.08C645.53 84.08 646.664 83.84 647.677 83.36C648.69 82.8533 649.49 82.1867 650.077 81.36C650.664 80.5067 650.957 79.5333 650.957 78.44H653.237C653.184 80.12 652.744 81.6267 651.917 82.96C651.09 84.2667 649.97 85.3067 648.557 86.08C647.144 86.8533 645.57 87.24 643.837 87.24ZM652.637 87C652.13 87 651.717 86.8533 651.397 86.56C651.104 86.24 650.957 85.8133 650.957 85.28V66.8C650.957 66.2933 651.104 65.8933 651.397 65.6C651.717 65.28 652.13 65.12 652.637 65.12C653.144 65.12 653.557 65.28 653.877 65.6C654.197 65.8933 654.357 66.2933 654.357 66.8V85.28C654.357 85.8133 654.197 86.24 653.877 86.56C653.557 86.8533 653.144 87 652.637 87ZM690.865 87C690.359 87 689.945 86.8533 689.625 86.56C689.305 86.24 689.145 85.8267 689.145 85.32V73.84C689.145 72 688.679 70.5733 687.745 69.56C686.812 68.5467 685.599 68.04 684.105 68.04C682.532 68.04 681.239 68.5733 680.225 69.64C679.239 70.7067 678.745 72.1067 678.745 73.84H675.825C675.852 72.0533 676.239 70.4933 676.985 69.16C677.732 67.8 678.759 66.7467 680.065 66C681.399 65.2533 682.905 64.88 684.585 64.88C686.132 64.88 687.505 65.24 688.705 65.96C689.905 66.68 690.839 67.72 691.505 69.08C692.199 70.4133 692.545 72 692.545 73.84V85.32C692.545 85.8267 692.385 86.24 692.065 86.56C691.745 86.8533 691.345 87 690.865 87ZM663.265 87C662.732 87 662.305 86.8533 661.985 86.56C661.692 86.24 661.545 85.8267 661.545 85.32V66.84C661.545 66.3333 661.692 65.92 661.985 65.6C662.305 65.28 662.732 65.12 663.265 65.12C663.772 65.12 664.172 65.28 664.465 65.6C664.785 65.92 664.945 66.3333 664.945 66.84V85.32C664.945 85.8267 664.785 86.24 664.465 86.56C664.172 86.8533 663.772 87 663.265 87ZM677.065 87C676.585 87 676.185 86.8533 675.865 86.56C675.545 86.24 675.385 85.8267 675.385 85.32V73.84C675.385 72 674.905 70.5733 673.945 69.56C673.012 68.5467 671.812 68.04 670.345 68.04C668.772 68.04 667.479 68.56 666.465 69.6C665.452 70.64 664.945 72 664.945 73.68H662.625C662.679 71.9467 663.052 70.4267 663.745 69.12C664.439 67.7867 665.399 66.7467 666.625 66C667.852 65.2533 669.252 64.88 670.825 64.88C672.372 64.88 673.745 65.24 674.945 65.96C676.145 66.68 677.079 67.72 677.745 69.08C678.412 70.4133 678.745 72 678.745 73.84V85.32C678.745 85.8267 678.585 86.24 678.265 86.56C677.972 86.8533 677.572 87 677.065 87ZM708.759 87.24C706.865 87.24 705.172 86.8533 703.679 86.08C702.212 85.28 701.052 84.12 700.199 82.6C699.345 81.08 698.919 79.2133 698.919 77V66.8C698.919 66.32 699.079 65.92 699.399 65.6C699.719 65.28 700.119 65.12 700.599 65.12C701.079 65.12 701.479 65.28 701.799 65.6C702.119 65.92 702.279 66.32 702.279 66.8V77C702.279 78.6267 702.585 79.96 703.199 81C703.812 82.0133 704.639 82.7867 705.679 83.32C706.719 83.8267 707.892 84.08 709.199 84.08C710.452 84.08 711.585 83.84 712.599 83.36C713.612 82.8533 714.412 82.1867 714.999 81.36C715.585 80.5067 715.879 79.5333 715.879 78.44H718.159C718.105 80.12 717.665 81.6267 716.839 82.96C716.012 84.2667 714.892 85.3067 713.479 86.08C712.065 86.8533 710.492 87.24 708.759 87.24ZM717.559 87C717.052 87 716.639 86.8533 716.319 86.56C716.025 86.24 715.879 85.8133 715.879 85.28V66.8C715.879 66.2933 716.025 65.8933 716.319 65.6C716.639 65.28 717.052 65.12 717.559 65.12C718.065 65.12 718.479 65.28 718.799 65.6C719.119 65.8933 719.279 66.2933 719.279 66.8V85.28C719.279 85.8133 719.119 86.24 718.799 86.56C718.479 86.8533 718.065 87 717.559 87Z" fill="#E2D4B0"/>
<line x1="126.5" y1="164" x2="126.5" y2="2.18557e-08" stroke="url(#paint0_linear_26_2)"/>
<path d="M60.72 56.5717C57.09 58.6935 53.724 57.1685 52.8 56.3728L52.404 55.6435C52.272 55.4446 51.81 55.312 51.414 55.312L50.754 41.1228C52.668 40.2609 54.186 38.1391 54.186 35.6196C54.186 32.5696 51.612 29.5859 48.51 29.5859C45.342 29.5859 42.702 32.238 42.702 35.4207C42.702 37.675 44.154 39.7304 46.134 40.9902L45.606 55.312H45.276C44.814 55.4446 44.616 56.1076 44.55 56.2402C44.088 56.7707 40.986 58.7598 36.696 56.5717C36.3 56.2402 35.772 56.2402 35.508 56.4391C34.914 56.7707 34.98 57.3011 35.112 57.8978C35.376 59.4891 36.696 61.0804 38.94 61.412L41.184 61.7435C43.362 61.9424 45.342 63.0033 45.408 65.4565V67.2467C45.408 68.7717 44.682 70.4294 43.89 72.0207C43.626 72.4848 44.286 73.6783 45.606 73.0152L45.87 73.0815L45.936 73.8109C44.682 77.325 44.484 81.3033 46.068 86.5413C44.484 90.387 44.352 94.6967 46.134 99.6033C45.54 101.128 44.946 103.25 44.946 105.836C44.946 108.82 46.2 114.588 46.728 117.771L45.606 122.213L43.956 126.059C43.89 126.854 44.946 127.385 45.408 126.39L45.804 125.462C46.398 124.401 46.992 123.473 47.19 122.346C47.454 121.02 47.52 120.489 47.784 119.693L48.51 120.423C48.774 120.158 48.774 118.102 48.246 116.909C47.388 114.986 46.398 109.483 46.398 106.234C46.398 102.322 47.256 100.598 48.378 97.8793C48.708 97.2163 47.586 96.487 47.19 97.2826L46.926 97.813C46.134 94.2326 45.804 90.6522 48.114 84.95L48.444 84.3533C48.576 83.6902 47.586 83.0272 47.124 84.0217L46.794 84.4196C46.068 81.3696 45.936 77.6565 47.19 73.6783V73.413C46.992 72.8826 46.662 72.4848 46.266 72.0207C47.454 70.4294 48.972 69.037 50.754 68.3739L51.216 69.8326C51.81 71.3576 53.064 71.3576 52.47 69.3685L52.206 67.9761L52.734 67.7109C53.526 67.0478 52.602 65.3902 51.744 65.788V64.5283C51.81 63.5337 53.064 62.1413 55.044 61.8761L57.684 61.5446C60.522 61.213 62.304 59.1576 62.172 57.1685C62.106 56.4391 61.446 55.975 60.72 56.5717ZM44.22 35.5533C44.22 33.2989 46.134 31.1772 48.51 31.1772C50.886 31.1772 52.668 32.9674 52.734 35.4207C52.734 37.5424 50.952 39.9294 48.51 39.9294C45.936 39.9957 44.22 37.8739 44.22 35.5533ZM47.52 41.5207H49.434L49.896 55.113L46.992 55.0467L47.52 41.5207ZM57.024 60.0859L54.714 60.4174C52.206 60.8152 50.556 63.1359 50.424 64.7272V66.5174C49.17 67.1141 47.784 67.7772 46.596 69.2359C46.794 68.5728 46.794 67.8435 46.794 67.1804V65.5228C46.596 62.4728 44.616 60.8152 41.58 60.4174L39.864 60.1522C38.412 60.0859 37.092 59.4228 36.762 58.4283C40.062 59.8207 44.946 58.7598 45.936 56.5717L48.576 56.4391L51.15 56.5717L51.48 56.837C52.074 58.163 55.176 59.887 58.146 59.1576L60.522 58.4283C59.994 59.2902 58.872 59.887 57.024 60.0859ZM48.51 58.0967C47.586 58.0967 46.596 58.8924 46.596 59.887C46.596 60.8815 47.52 61.8098 48.51 61.8761C49.434 61.8761 50.424 61.0804 50.424 59.887C50.424 58.8924 49.434 58.0967 48.51 58.0967ZM48.51 60.55C48.18 60.55 47.85 60.2185 47.85 59.887C47.85 59.5554 48.18 59.2902 48.51 59.2902C48.84 59.2902 49.17 59.5554 49.17 59.887C49.17 60.2185 48.906 60.55 48.51 60.55Z" fill="#E2D4B0"/>
<path d="M68.904 114.986C68.574 115.185 67.914 115.185 67.716 115.848C68.244 120.423 66.33 122.743 65.01 122.545C63.756 122.412 62.7 119.561 63.294 116.445L64.152 112.93C65.604 105.968 63.756 100.664 59.4 95.5587C58.806 94.6304 57.816 95.2935 58.014 95.9565C58.212 98.6087 57.816 101.99 55.176 104.51C52.536 107.228 50.556 110.212 50.754 114.92C51.216 118.301 50.622 121.749 48.51 124.467C47.982 125.13 48.774 126.191 49.566 125.528C51.744 123.141 52.866 119.163 52.272 115.583C51.744 109.483 55.044 107.228 56.496 105.305C58.344 103.25 59.532 100.399 59.664 98.2109C62.832 102.255 63.822 106.234 62.766 111.936L61.776 115.583C60.984 120.887 63.03 123.871 65.01 124.07C66.99 124.202 68.97 122.743 69.3 119.097L69.234 118.964L69.3 118.898C71.676 123.208 72.6 128.18 69.762 133.485C69.96 134.479 70.884 134.811 71.214 134.082C74.514 128.048 73.26 121.616 68.904 115.185V114.986ZM37.554 112.466L37.752 112.533L37.554 112.466ZM43.23 107.228C40.854 104.51 38.346 100.996 39.996 93.5696C39.732 92.4424 38.874 92.575 38.676 92.9728C34.98 97.5478 32.802 102.521 34.32 109.284L35.31 113.196C35.904 117.572 34.65 121.218 32.67 121.218C31.35 121.152 30.03 118.566 30.36 115.782C30.36 114.522 29.106 114.455 28.908 115.45C28.05 118.5 24.354 123.141 25.74 130.037L26.532 132.424C27.06 133.021 28.116 132.424 27.852 131.761C26.07 126.457 27.456 122.08 29.106 119.163C29.634 121.417 31.152 122.81 32.934 122.545C35.376 122.412 37.422 119.163 36.894 114.19L35.772 109.615C34.914 105.305 35.244 101.195 37.752 97.2163C37.29 104.642 41.316 106.565 42.57 110.146L43.296 113.196H43.89L44.286 112.798L43.362 107.626L43.23 107.228Z" fill="#E2D4B0"/>
<path d="M47.586 129.175C46.794 128.446 45.672 129.507 46.2 130.103L46.662 130.7L45.54 132.424C44.55 134.015 44.154 136.667 45.804 138.325V138.723L41.25 144.359H34.056C33.066 144.359 33.066 146.083 34.122 146.016H41.646L42.174 145.685L49.236 137.065C49.896 136.336 49.236 135.408 48.444 135.805L47.124 137.33C45.672 136.402 46.266 134.347 47.784 131.827C54.912 138.06 54.516 136.734 55.044 140.712L55.704 142.038H56.43L57.684 141.309C58.74 141.707 60.72 143.696 62.502 145.287C63.294 146.016 64.35 144.955 63.492 144.093C61.71 142.436 60.654 141.309 58.806 140.049C56.166 137.993 55.176 136.004 53.79 133.816C53.196 133.418 52.866 134.082 52.47 134.082L47.586 129.175ZM56.1 139.452L56.826 140.115L56.496 140.447L56.1 139.452ZM42.57 135.076C39.996 135.076 41.25 133.418 40.392 133.087L39.27 134.148L37.95 134.148C36.366 134.148 36.63 136.071 38.214 135.805L39.666 135.673L41.712 137.132H41.976L44.616 135.474V135.01L42.57 135.076ZM39.402 138.06L38.94 138.192L38.214 138.789C37.554 139.452 38.346 140.646 39.27 139.717L40.524 138.325L40.26 138.126L39.402 138.06ZM32.472 140.049L25.872 144.425L25.08 143.364L23.232 141.773L23.166 141.64L23.1 141.11C24.816 139.784 26.796 138.06 28.314 136.468C29.7 135.142 32.076 133.22 34.254 131.761L39.996 128.843C40.656 128.18 39.93 127.12 39.27 127.517L34.122 130.368L34.914 128.843L39.6 123.141L41.712 124.733C42.306 125.13 43.032 124.136 42.9 123.738L39.996 121.417C39.336 120.887 39.072 121.484 38.94 121.55L33.264 128.247C32.802 128.711 33.33 128.843 31.086 132.358L24.156 138.391C22.44 140.049 18.15 142.37 17.292 142.767C15.246 143.364 16.566 145.42 17.886 144.292L20.064 143.298L21.846 142.038L25.146 146.083C25.542 146.746 26.136 146.348 26.136 146.348L33.66 141.441C34.65 140.778 33.66 139.651 32.472 140.049ZM55.176 127.783L57.816 124.865L61.116 127.849L61.314 128.18L60.06 129.507L68.112 137.065C68.376 137.065 70.224 137.662 69.696 136.667L62.37 129.507L62.964 128.247C63.096 127.716 62.7 127.12 61.974 126.457L58.146 123.141C57.684 122.876 57.42 122.876 57.09 123.208L51.81 128.843C51.084 129.507 52.206 130.766 52.866 129.772M80.916 141.972L76.824 141.707L71.544 139.121L69.234 138.192L68.97 137.993L61.512 136.468C60.522 136.137 60.06 137.728 61.05 137.795L68.244 139.452L70.224 140.049L72.93 141.11L79.266 144.093H79.2L79.53 144.359C79.794 144.359 80.256 144.955 80.916 144.624L81.774 143.629V143.033L81.114 142.767H80.85H80.916H81.774V142.104L80.916 141.972ZM12.54 144.027C12.54 143.762 12.276 143.298 11.946 143.298H3.366C2.574 143.099 2.31 144.624 3.366 144.69H12.21C12.21 144.757 12.606 144.624 12.54 144.027ZM8.91 138.325H17.49C18.414 138.06 18.216 136.999 17.556 136.999H8.91C7.986 136.8 7.722 138.458 8.91 138.325ZM21.78 137.662L22.836 136.999L21.252 135.673L20.922 135.739L20.46 136.734C18.942 137.33 19.8 138.988 20.856 138.192L21.186 137.795L21.78 137.662ZM91.41 138.06C91.41 137.795 91.146 137.463 90.882 137.463H79.926C78.936 137.463 78.87 138.988 80.124 138.988H91.08C91.344 138.988 91.674 138.458 91.41 138.06ZM91.014 144.027C91.014 143.629 90.684 143.364 90.222 143.364H85.14C84.15 143.298 84.084 144.757 85.14 144.757H90.42C90.75 144.69 91.08 144.359 91.014 144.027ZM96.558 144.027C96.558 143.629 96.162 143.298 95.964 143.298H93.984C92.862 143.298 92.796 144.757 93.984 144.69H96.03C96.162 144.69 96.624 144.359 96.558 144.027ZM73.194 144.292H67.32C66.132 144.292 66.396 145.751 67.386 145.751H73.26C74.646 145.95 74.58 144.093 73.194 144.292ZM56.496 144.425H52.866C51.744 144.425 51.612 146.016 53.064 145.95H56.562C57.552 145.95 57.816 144.359 56.496 144.425ZM49.896 142.767L47.124 144.359C46.266 144.955 47.454 146.083 48.246 145.42L50.16 144.16C51.414 143.696 51.084 142.37 49.896 142.767ZM77.22 139.054H77.286H77.154L74.91 138.126L74.844 138.06H74.712M76.626 137.463C75.372 137.33 74.184 138.325 75.966 138.789H77.22C78.342 138.988 78.276 137.132 77.154 137.463H76.626Z" fill="#E2D4B0"/>
<path d="M56.76 131.695C55.704 132.689 56.364 133.021 56.826 133.418H57.156L58.014 132.49L57.222 131.695H56.76Z" fill="#E2D4B0"/>
<path d="M50.226 71.8217L48.774 75.4022C48.576 76.463 49.632 76.9935 50.226 75.6674C51.414 79.0489 50.622 83.6902 49.566 86.4087L48.774 89.0609C48.774 90.0554 49.83 90.3206 50.226 89.0609C51.216 92.9728 50.754 96.9511 48.906 101.659C48.576 102.918 49.764 103.515 50.292 101.924L50.49 101.858C50.886 103.184 51.084 104.908 50.952 105.968L51.216 106.234L52.272 104.841C52.272 103.316 51.546 100.598 51.15 99.6696C52.536 95.2935 52.932 91.5804 51.15 86.6076C52.602 82.6293 52.866 78.3859 51.216 72.75C50.952 71.1587 50.292 71.4239 50.226 71.8217Z" fill="#E2D4B0"/>
<path d="M19.272 126.788C19.7823 126.788 20.196 126.372 20.196 125.86C20.196 125.347 19.7823 124.932 19.272 124.932C18.7617 124.932 18.348 125.347 18.348 125.86C18.348 126.372 18.7617 126.788 19.272 126.788Z" fill="#E2D4B0"/>
<path d="M26.466 108.488C26.9763 108.488 27.39 108.072 27.39 107.56C27.39 107.047 26.9763 106.632 26.466 106.632C25.9557 106.632 25.542 107.047 25.542 107.56C25.542 108.072 25.9557 108.488 26.466 108.488Z" fill="#E2D4B0"/>
<path d="M32.472 83.2924C32.9823 83.2924 33.396 82.8768 33.396 82.3641C33.396 81.8514 32.9823 81.4359 32.472 81.4359C31.9617 81.4359 31.548 81.8514 31.548 82.3641C31.548 82.8768 31.9617 83.2924 32.472 83.2924Z" fill="#E2D4B0"/>
<path d="M61.512 78.6511C62.0223 78.6511 62.436 78.2355 62.436 77.7228C62.436 77.2102 62.0223 76.7946 61.512 76.7946C61.0017 76.7946 60.588 77.2102 60.588 77.7228C60.588 78.2355 61.0017 78.6511 61.512 78.6511Z" fill="#E2D4B0"/>
<path d="M60.39 89.3261C60.9003 89.3261 61.314 88.9105 61.314 88.3978C61.314 87.8852 60.9003 87.4696 60.39 87.4696C59.8797 87.4696 59.466 87.8852 59.466 88.3978C59.466 88.9105 59.8797 89.3261 60.39 89.3261Z" fill="#E2D4B0"/>
<path d="M68.772 97.813C69.2823 97.813 69.696 97.3974 69.696 96.8848C69.696 96.3721 69.2823 95.9565 68.772 95.9565C68.2617 95.9565 67.848 96.3721 67.848 96.8848C67.848 97.3974 68.2617 97.813 68.772 97.813Z" fill="#E2D4B0"/>
<path d="M73.062 109.151C73.5723 109.151 73.986 108.735 73.986 108.223C73.986 107.71 73.5723 107.295 73.062 107.295C72.5517 107.295 72.138 107.71 72.138 108.223C72.138 108.735 72.5517 109.151 73.062 109.151Z" fill="#E2D4B0"/>
<path d="M66.726 129.44C67.2728 129.44 67.716 128.995 67.716 128.446C67.716 127.896 67.2728 127.451 66.726 127.451C66.1793 127.451 65.736 127.896 65.736 128.446C65.736 128.995 66.1793 129.44 66.726 129.44Z" fill="#E2D4B0"/>
<path d="M76.89 133.617C77.4003 133.617 77.814 133.202 77.814 132.689C77.814 132.176 77.4003 131.761 76.89 131.761C76.3797 131.761 75.966 132.176 75.966 132.689C75.966 133.202 76.3797 133.617 76.89 133.617Z" fill="#E2D4B0"/>
<path d="M151.86 128C151.62 128 151.413 127.92 151.24 127.76C151.08 127.587 151 127.38 151 127.14V113.24C151 112.987 151.08 112.78 151.24 112.62C151.413 112.46 151.62 112.38 151.86 112.38C152.207 112.38 152.46 112.527 152.62 112.82L159.22 125.96H158.56L165.02 112.82C165.193 112.527 165.447 112.38 165.78 112.38C166.02 112.38 166.22 112.46 166.38 112.62C166.54 112.78 166.62 112.987 166.62 113.24V127.14C166.62 127.38 166.54 127.587 166.38 127.76C166.22 127.92 166.02 128 165.78 128C165.527 128 165.313 127.92 165.14 127.76C164.98 127.587 164.9 127.38 164.9 127.14V115.52L165.26 115.5L159.56 127.14C159.4 127.42 159.153 127.56 158.82 127.56C158.46 127.56 158.193 127.387 158.02 127.04L152.32 115.62L152.72 115.52V127.14C152.72 127.38 152.633 127.587 152.46 127.76C152.3 127.92 152.1 128 151.86 128ZM175.149 128.12C174.202 128.12 173.356 127.927 172.609 127.54C171.876 127.14 171.296 126.56 170.869 125.8C170.442 125.04 170.229 124.107 170.229 123V117.9C170.229 117.66 170.309 117.46 170.469 117.3C170.629 117.14 170.829 117.06 171.069 117.06C171.309 117.06 171.509 117.14 171.669 117.3C171.829 117.46 171.909 117.66 171.909 117.9V123C171.909 123.813 172.062 124.48 172.369 125C172.676 125.507 173.089 125.893 173.609 126.16C174.129 126.413 174.716 126.54 175.369 126.54C175.996 126.54 176.562 126.42 177.069 126.18C177.576 125.927 177.976 125.593 178.269 125.18C178.562 124.753 178.709 124.267 178.709 123.72H179.849C179.822 124.56 179.602 125.313 179.189 125.98C178.776 126.633 178.216 127.153 177.509 127.54C176.802 127.927 176.016 128.12 175.149 128.12ZM179.549 128C179.296 128 179.089 127.927 178.929 127.78C178.782 127.62 178.709 127.407 178.709 127.14V117.9C178.709 117.647 178.782 117.447 178.929 117.3C179.089 117.14 179.296 117.06 179.549 117.06C179.802 117.06 180.009 117.14 180.169 117.3C180.329 117.447 180.409 117.647 180.409 117.9V127.14C180.409 127.407 180.329 127.62 180.169 127.78C180.009 127.927 179.802 128 179.549 128ZM184.863 132.68C184.596 132.68 184.383 132.6 184.223 132.44C184.076 132.293 184.003 132.087 184.003 131.82V122.48C184.016 121.44 184.263 120.507 184.743 119.68C185.236 118.84 185.896 118.18 186.723 117.7C187.55 117.207 188.483 116.96 189.523 116.96C190.59 116.96 191.536 117.207 192.363 117.7C193.203 118.18 193.863 118.84 194.343 119.68C194.836 120.52 195.083 121.473 195.083 122.54C195.083 123.593 194.85 124.54 194.383 125.38C193.93 126.22 193.303 126.887 192.503 127.38C191.703 127.86 190.796 128.1 189.783 128.1C188.916 128.1 188.13 127.92 187.423 127.56C186.716 127.187 186.143 126.7 185.703 126.1V131.82C185.703 132.087 185.623 132.293 185.463 132.44C185.303 132.6 185.103 132.68 184.863 132.68ZM189.523 126.58C190.27 126.58 190.936 126.407 191.523 126.06C192.123 125.7 192.59 125.213 192.923 124.6C193.27 123.987 193.443 123.3 193.443 122.54C193.443 121.767 193.27 121.08 192.923 120.48C192.59 119.867 192.123 119.38 191.523 119.02C190.936 118.66 190.27 118.48 189.523 118.48C188.803 118.48 188.143 118.66 187.543 119.02C186.956 119.38 186.496 119.867 186.163 120.48C185.83 121.08 185.663 121.767 185.663 122.54C185.663 123.3 185.83 123.987 186.163 124.6C186.496 125.213 186.956 125.7 187.543 126.06C188.13 126.407 188.79 126.58 189.523 126.58ZM203.864 132.78C203.584 132.793 203.304 132.76 203.024 132.68C202.757 132.6 202.49 132.487 202.224 132.34C201.984 132.193 201.83 132.007 201.764 131.78C201.684 131.553 201.724 131.34 201.884 131.14C202.017 130.953 202.184 130.847 202.384 130.82C202.597 130.807 202.817 130.86 203.044 130.98C203.19 131.06 203.33 131.12 203.464 131.16C203.61 131.2 203.77 131.22 203.944 131.22C204.37 131.22 204.784 131.013 205.184 130.6C205.597 130.187 205.977 129.58 206.324 128.78L211.244 117.5C211.337 117.287 211.484 117.14 211.684 117.06C211.897 116.98 212.117 116.987 212.344 117.08C212.53 117.173 212.657 117.32 212.724 117.52C212.79 117.72 212.77 117.94 212.664 118.18L207.724 129.46C207.27 130.447 206.704 131.247 206.024 131.86C205.357 132.473 204.637 132.78 203.864 132.78ZM208.144 127.62C207.93 127.727 207.73 127.747 207.544 127.68C207.357 127.613 207.204 127.467 207.084 127.24L202.604 118.18C202.497 117.953 202.477 117.747 202.544 117.56C202.624 117.373 202.77 117.227 202.984 117.12C203.21 117.027 203.417 117.013 203.604 117.08C203.79 117.147 203.937 117.287 204.044 117.5L208.444 126.54C208.55 126.753 208.584 126.967 208.544 127.18C208.504 127.38 208.37 127.527 208.144 127.62ZM218.457 128.1C217.644 128.1 216.917 127.98 216.277 127.74C215.65 127.487 215.15 127.14 214.777 126.7C214.404 126.247 214.217 125.72 214.217 125.12C214.217 124.573 214.364 124.093 214.657 123.68C214.95 123.267 215.404 122.907 216.017 122.6C216.644 122.293 217.437 122.04 218.397 121.84C219.304 121.64 219.924 121.393 220.257 121.1C220.59 120.793 220.757 120.413 220.757 119.96C220.757 119.507 220.55 119.147 220.137 118.88C219.724 118.6 219.19 118.46 218.537 118.46C218.004 118.46 217.504 118.553 217.037 118.74C216.57 118.913 216.184 119.167 215.877 119.5C215.704 119.673 215.517 119.787 215.317 119.84C215.117 119.88 214.95 119.86 214.817 119.78C214.59 119.647 214.45 119.473 214.397 119.26C214.357 119.047 214.41 118.853 214.557 118.68C214.944 118.16 215.477 117.747 216.157 117.44C216.85 117.12 217.637 116.96 218.517 116.96C219.264 116.96 219.93 117.08 220.517 117.32C221.104 117.547 221.564 117.887 221.897 118.34C222.23 118.793 222.397 119.353 222.397 120.02C222.397 120.727 222.11 121.353 221.537 121.9C220.977 122.433 220.077 122.84 218.837 123.12C217.717 123.36 216.95 123.633 216.537 123.94C216.124 124.247 215.917 124.633 215.917 125.1C215.917 125.58 216.124 125.947 216.537 126.2C216.95 126.453 217.577 126.58 218.417 126.58C219.097 126.58 219.69 126.5 220.197 126.34C220.717 126.18 221.137 125.92 221.457 125.56C221.617 125.4 221.797 125.293 221.997 125.24C222.197 125.187 222.404 125.24 222.617 125.4C222.804 125.56 222.897 125.747 222.897 125.96C222.91 126.16 222.837 126.347 222.677 126.52C222.224 127 221.61 127.387 220.837 127.68C220.064 127.96 219.27 128.1 218.457 128.1ZM230.228 128.1C229.214 128.1 228.308 127.86 227.508 127.38C226.708 126.887 226.074 126.22 225.608 125.38C225.141 124.54 224.908 123.593 224.908 122.54C224.908 121.473 225.148 120.52 225.628 119.68C226.121 118.84 226.788 118.18 227.628 117.7C228.468 117.207 229.414 116.96 230.468 116.96C231.508 116.96 232.441 117.207 233.268 117.7C234.108 118.18 234.768 118.84 235.248 119.68C235.741 120.52 235.994 121.473 236.008 122.54L235.328 122.88C235.328 123.867 235.101 124.753 234.648 125.54C234.208 126.327 233.601 126.953 232.828 127.42C232.068 127.873 231.201 128.1 230.228 128.1ZM230.468 126.58C231.214 126.58 231.874 126.407 232.448 126.06C233.034 125.7 233.494 125.213 233.828 124.6C234.174 123.987 234.348 123.3 234.348 122.54C234.348 121.767 234.174 121.08 233.828 120.48C233.494 119.867 233.034 119.38 232.448 119.02C231.874 118.66 231.214 118.48 230.468 118.48C229.734 118.48 229.068 118.66 228.468 119.02C227.881 119.38 227.414 119.867 227.068 120.48C226.721 121.08 226.548 121.767 226.548 122.54C226.548 123.3 226.721 123.987 227.068 124.6C227.414 125.213 227.881 125.7 228.468 126.06C229.068 126.407 229.734 126.58 230.468 126.58ZM235.148 128C234.908 128 234.701 127.927 234.528 127.78C234.368 127.62 234.288 127.413 234.288 127.16V123.86L234.668 122.12L236.008 122.54V127.16C236.008 127.413 235.928 127.62 235.768 127.78C235.608 127.927 235.401 128 235.148 128ZM243.903 128.1C242.85 128.1 241.91 127.86 241.083 127.38C240.256 126.887 239.603 126.22 239.123 125.38C238.656 124.54 238.423 123.593 238.423 122.54C238.423 121.473 238.65 120.52 239.103 119.68C239.57 118.84 240.196 118.18 240.983 117.7C241.783 117.207 242.703 116.96 243.743 116.96C244.543 116.96 245.283 117.12 245.963 117.44C246.643 117.747 247.243 118.213 247.763 118.84C247.923 119.027 247.976 119.22 247.923 119.42C247.883 119.607 247.763 119.773 247.563 119.92C247.403 120.027 247.223 120.067 247.023 120.04C246.836 120 246.663 119.893 246.503 119.72C245.77 118.893 244.85 118.48 243.743 118.48C243.01 118.48 242.363 118.653 241.803 119C241.256 119.347 240.83 119.827 240.523 120.44C240.216 121.04 240.063 121.74 240.063 122.54C240.063 123.313 240.223 124.007 240.543 124.62C240.876 125.22 241.33 125.7 241.903 126.06C242.49 126.407 243.156 126.58 243.903 126.58C244.41 126.58 244.863 126.513 245.263 126.38C245.676 126.247 246.043 126.04 246.363 125.76C246.55 125.613 246.736 125.533 246.923 125.52C247.11 125.507 247.283 125.56 247.443 125.68C247.616 125.84 247.716 126.02 247.743 126.22C247.77 126.42 247.703 126.6 247.543 126.76C246.57 127.653 245.356 128.1 243.903 128.1ZM255.677 128.1C254.663 128.1 253.757 127.86 252.957 127.38C252.157 126.887 251.523 126.22 251.057 125.38C250.59 124.54 250.357 123.593 250.357 122.54C250.357 121.473 250.597 120.52 251.077 119.68C251.57 118.84 252.237 118.18 253.077 117.7C253.917 117.207 254.863 116.96 255.917 116.96C256.957 116.96 257.89 117.207 258.717 117.7C259.557 118.18 260.217 118.84 260.697 119.68C261.19 120.52 261.443 121.473 261.457 122.54L260.777 122.88C260.777 123.867 260.55 124.753 260.097 125.54C259.657 126.327 259.05 126.953 258.277 127.42C257.517 127.873 256.65 128.1 255.677 128.1ZM255.917 126.58C256.663 126.58 257.323 126.407 257.897 126.06C258.483 125.7 258.943 125.213 259.277 124.6C259.623 123.987 259.797 123.3 259.797 122.54C259.797 121.767 259.623 121.08 259.277 120.48C258.943 119.867 258.483 119.38 257.897 119.02C257.323 118.66 256.663 118.48 255.917 118.48C255.183 118.48 254.517 118.66 253.917 119.02C253.33 119.38 252.863 119.867 252.517 120.48C252.17 121.08 251.997 121.767 251.997 122.54C251.997 123.3 252.17 123.987 252.517 124.6C252.863 125.213 253.33 125.7 253.917 126.06C254.517 126.407 255.183 126.58 255.917 126.58ZM260.597 128C260.357 128 260.15 127.927 259.977 127.78C259.817 127.62 259.737 127.413 259.737 127.16V123.86L260.117 122.12L261.457 122.54V127.16C261.457 127.413 261.377 127.62 261.217 127.78C261.057 127.927 260.85 128 260.597 128ZM269.472 128.1C268.379 128.1 267.412 127.867 266.572 127.4C265.732 126.92 265.072 126.26 264.592 125.42C264.112 124.58 263.872 123.62 263.872 122.54C263.872 121.447 264.099 120.487 264.552 119.66C265.006 118.82 265.626 118.16 266.412 117.68C267.212 117.2 268.132 116.96 269.172 116.96C270.186 116.96 271.066 117.193 271.812 117.66C272.572 118.113 273.152 118.747 273.552 119.56C273.966 120.373 274.172 121.3 274.172 122.34C274.172 122.567 274.099 122.753 273.952 122.9C273.806 123.033 273.619 123.1 273.392 123.1H265.032V121.72H273.492L272.632 122.32C272.646 121.587 272.512 120.927 272.232 120.34C271.952 119.753 271.552 119.293 271.032 118.96C270.512 118.627 269.892 118.46 269.172 118.46C268.412 118.46 267.746 118.633 267.172 118.98C266.612 119.327 266.179 119.813 265.872 120.44C265.579 121.053 265.432 121.753 265.432 122.54C265.432 123.327 265.606 124.027 265.952 124.64C266.299 125.253 266.772 125.733 267.372 126.08C267.986 126.427 268.686 126.6 269.472 126.6C269.926 126.6 270.386 126.52 270.852 126.36C271.332 126.2 271.712 126 271.992 125.76C272.152 125.64 272.332 125.58 272.532 125.58C272.746 125.567 272.919 125.62 273.052 125.74C273.252 125.913 273.352 126.1 273.352 126.3C273.366 126.5 273.279 126.673 273.092 126.82C272.652 127.193 272.092 127.5 271.412 127.74C270.732 127.98 270.086 128.1 269.472 128.1ZM291.437 128C291.183 128 290.977 127.927 290.817 127.78C290.657 127.62 290.577 127.413 290.577 127.16V121.42C290.577 120.5 290.343 119.787 289.877 119.28C289.41 118.773 288.803 118.52 288.057 118.52C287.27 118.52 286.623 118.787 286.117 119.32C285.623 119.853 285.377 120.553 285.377 121.42H283.917C283.93 120.527 284.123 119.747 284.497 119.08C284.87 118.4 285.383 117.873 286.037 117.5C286.703 117.127 287.457 116.94 288.297 116.94C289.07 116.94 289.757 117.12 290.357 117.48C290.957 117.84 291.423 118.36 291.757 119.04C292.103 119.707 292.277 120.5 292.277 121.42V127.16C292.277 127.413 292.197 127.62 292.037 127.78C291.877 127.927 291.677 128 291.437 128ZM277.637 128C277.37 128 277.157 127.927 276.997 127.78C276.85 127.62 276.777 127.413 276.777 127.16V117.92C276.777 117.667 276.85 117.46 276.997 117.3C277.157 117.14 277.37 117.06 277.637 117.06C277.89 117.06 278.09 117.14 278.237 117.3C278.397 117.46 278.477 117.667 278.477 117.92V127.16C278.477 127.413 278.397 127.62 278.237 127.78C278.09 127.927 277.89 128 277.637 128ZM284.537 128C284.297 128 284.097 127.927 283.937 127.78C283.777 127.62 283.697 127.413 283.697 127.16V121.42C283.697 120.5 283.457 119.787 282.977 119.28C282.51 118.773 281.91 118.52 281.177 118.52C280.39 118.52 279.743 118.78 279.237 119.3C278.73 119.82 278.477 120.5 278.477 121.34H277.317C277.343 120.473 277.53 119.713 277.877 119.06C278.223 118.393 278.703 117.873 279.317 117.5C279.93 117.127 280.63 116.94 281.417 116.94C282.19 116.94 282.877 117.12 283.477 117.48C284.077 117.84 284.543 118.36 284.877 119.04C285.21 119.707 285.377 120.5 285.377 121.42V127.16C285.377 127.413 285.297 127.62 285.137 127.78C284.99 127.927 284.79 128 284.537 128ZM296.083 128.32C295.75 128.32 295.463 128.2 295.223 127.96C294.983 127.72 294.863 127.433 294.863 127.1C294.863 126.74 294.983 126.44 295.223 126.2C295.477 125.96 295.763 125.84 296.083 125.84C296.43 125.84 296.723 125.967 296.963 126.22C297.203 126.46 297.323 126.753 297.323 127.1C297.323 127.42 297.203 127.707 296.963 127.96C296.737 128.2 296.443 128.32 296.083 128.32ZM310.736 128C310.496 128 310.289 127.92 310.116 127.76C309.956 127.587 309.876 127.38 309.876 127.14V112.38H311.596V127.14C311.596 127.38 311.516 127.587 311.356 127.76C311.196 127.92 310.989 128 310.736 128ZM305.276 113.96C305.036 113.96 304.842 113.887 304.696 113.74C304.549 113.58 304.476 113.393 304.476 113.18C304.476 112.94 304.549 112.747 304.696 112.6C304.842 112.453 305.036 112.38 305.276 112.38H316.216C316.456 112.38 316.649 112.453 316.796 112.6C316.942 112.747 317.016 112.94 317.016 113.18C317.016 113.393 316.942 113.58 316.796 113.74C316.649 113.887 316.456 113.96 316.216 113.96H305.276ZM317.187 128C316.921 128 316.707 127.927 316.547 127.78C316.401 127.62 316.327 127.407 316.327 127.14V117.9C316.341 117.647 316.421 117.447 316.567 117.3C316.727 117.14 316.934 117.06 317.187 117.06C317.441 117.06 317.641 117.14 317.787 117.3C317.947 117.447 318.027 117.653 318.027 117.92V121.6H322.127V121.92C322.834 121.92 323.461 122.047 324.007 122.3C324.567 122.553 325.001 122.907 325.307 123.36C325.614 123.8 325.767 124.307 325.767 124.88C325.767 125.493 325.614 126.033 325.307 126.5C325.001 126.967 324.567 127.333 324.007 127.6C323.461 127.867 322.834 128 322.127 128H317.187ZM318.027 126.44H322.127C322.714 126.44 323.187 126.293 323.547 126C323.921 125.707 324.107 125.293 324.107 124.76C324.107 124.213 323.921 123.793 323.547 123.5C323.187 123.193 322.714 123.04 322.127 123.04H318.027V126.44ZM320.287 122.54V121.6H322.227C322.654 121.6 323.001 121.453 323.267 121.16C323.547 120.867 323.687 120.493 323.687 120.04C323.687 119.64 323.534 119.3 323.227 119.02C322.934 118.74 322.567 118.6 322.127 118.6H317.207V117.06H322.127C322.741 117.06 323.281 117.187 323.747 117.44C324.227 117.68 324.607 118.013 324.887 118.44C325.167 118.867 325.307 119.36 325.307 119.92C325.307 120.76 325.014 121.407 324.427 121.86C323.854 122.313 323.121 122.54 322.227 122.54H320.287ZM333.319 128.1C332.239 128.1 331.279 127.86 330.439 127.38C329.612 126.9 328.959 126.24 328.479 125.4C327.999 124.56 327.759 123.607 327.759 122.54C327.759 121.46 327.999 120.5 328.479 119.66C328.959 118.82 329.612 118.16 330.439 117.68C331.279 117.2 332.239 116.96 333.319 116.96C334.386 116.96 335.332 117.2 336.159 117.68C336.986 118.16 337.639 118.82 338.119 119.66C338.599 120.5 338.846 121.46 338.859 122.54C338.859 123.607 338.619 124.56 338.139 125.4C337.659 126.24 336.999 126.9 336.159 127.38C335.332 127.86 334.386 128.1 333.319 128.1ZM333.319 126.58C334.066 126.58 334.732 126.407 335.319 126.06C335.906 125.7 336.366 125.22 336.699 124.62C337.032 124.007 337.199 123.313 337.199 122.54C337.199 121.767 337.032 121.073 336.699 120.46C336.366 119.847 335.906 119.367 335.319 119.02C334.732 118.66 334.066 118.48 333.319 118.48C332.572 118.48 331.899 118.66 331.299 119.02C330.712 119.367 330.246 119.847 329.899 120.46C329.566 121.073 329.399 121.767 329.399 122.54C329.399 123.313 329.566 124.007 329.899 124.62C330.246 125.22 330.712 125.7 331.299 126.06C331.899 126.407 332.572 126.58 333.319 126.58ZM346.575 128.12C345.628 128.12 344.781 127.927 344.035 127.54C343.301 127.14 342.721 126.56 342.295 125.8C341.868 125.04 341.655 124.107 341.655 123V117.9C341.655 117.66 341.735 117.46 341.895 117.3C342.055 117.14 342.255 117.06 342.495 117.06C342.735 117.06 342.935 117.14 343.095 117.3C343.255 117.46 343.335 117.66 343.335 117.9V123C343.335 123.813 343.488 124.48 343.795 125C344.101 125.507 344.515 125.893 345.035 126.16C345.555 126.413 346.141 126.54 346.795 126.54C347.421 126.54 347.988 126.42 348.495 126.18C349.001 125.927 349.401 125.593 349.695 125.18C349.988 124.753 350.135 124.267 350.135 123.72H351.275C351.248 124.56 351.028 125.313 350.615 125.98C350.201 126.633 349.641 127.153 348.935 127.54C348.228 127.927 347.441 128.12 346.575 128.12ZM350.975 128C350.721 128 350.515 127.927 350.355 127.78C350.208 127.62 350.135 127.407 350.135 127.14V117.9C350.135 117.647 350.208 117.447 350.355 117.3C350.515 117.14 350.721 117.06 350.975 117.06C351.228 117.06 351.435 117.14 351.595 117.3C351.755 117.447 351.835 117.647 351.835 117.9V127.14C351.835 127.407 351.755 127.62 351.595 127.78C351.435 127.927 351.228 128 350.975 128ZM346.855 115.64C346.188 115.64 345.588 115.527 345.055 115.3C344.535 115.073 344.121 114.767 343.815 114.38C343.508 113.98 343.355 113.54 343.355 113.06C343.355 112.82 343.428 112.62 343.575 112.46C343.735 112.3 343.921 112.22 344.135 112.22C344.361 112.22 344.548 112.3 344.695 112.46C344.841 112.62 344.915 112.833 344.915 113.1C344.915 113.46 345.101 113.753 345.475 113.98C345.848 114.207 346.308 114.32 346.855 114.32C347.415 114.32 347.875 114.207 348.235 113.98C348.608 113.753 348.795 113.46 348.795 113.1C348.795 112.833 348.868 112.62 349.015 112.46C349.175 112.3 349.361 112.22 349.575 112.22C349.801 112.22 349.988 112.3 350.135 112.46C350.281 112.62 350.355 112.82 350.355 113.06C350.355 113.54 350.201 113.98 349.895 114.38C349.588 114.767 349.168 115.073 348.635 115.3C348.115 115.527 347.521 115.64 346.855 115.64ZM370.628 128C370.375 128 370.168 127.92 370.008 127.76C369.848 127.6 369.768 127.4 369.768 127.16V122.06C369.768 121.247 369.615 120.587 369.308 120.08C369.015 119.56 368.608 119.173 368.088 118.92C367.568 118.653 366.975 118.52 366.308 118.52C365.682 118.52 365.115 118.647 364.608 118.9C364.115 119.14 363.722 119.473 363.428 119.9C363.135 120.313 362.988 120.793 362.988 121.34H361.828C361.855 120.5 362.075 119.753 362.488 119.1C362.915 118.433 363.482 117.907 364.188 117.52C364.895 117.133 365.682 116.94 366.548 116.94C367.482 116.94 368.315 117.14 369.048 117.54C369.795 117.927 370.382 118.5 370.808 119.26C371.248 120.02 371.468 120.953 371.468 122.06V127.16C371.468 127.4 371.388 127.6 371.228 127.76C371.068 127.92 370.868 128 370.628 128ZM362.148 128C361.882 128 361.668 127.927 361.508 127.78C361.362 127.62 361.288 127.413 361.288 127.16V117.92C361.288 117.653 361.362 117.447 361.508 117.3C361.668 117.14 361.882 117.06 362.148 117.06C362.402 117.06 362.602 117.14 362.748 117.3C362.908 117.447 362.988 117.653 362.988 117.92V127.16C362.988 127.413 362.908 127.62 362.748 127.78C362.602 127.927 362.402 128 362.148 128ZM374.137 132.78C373.857 132.793 373.577 132.76 373.297 132.68C373.03 132.6 372.764 132.487 372.497 132.34C372.257 132.193 372.104 132.007 372.037 131.78C371.957 131.553 371.997 131.34 372.157 131.14C372.29 130.953 372.457 130.847 372.657 130.82C372.87 130.807 373.09 130.86 373.317 130.98C373.464 131.06 373.604 131.12 373.737 131.16C373.884 131.2 374.044 131.22 374.217 131.22C374.644 131.22 375.057 131.013 375.457 130.6C375.87 130.187 376.25 129.58 376.597 128.78L381.517 117.5C381.61 117.287 381.757 117.14 381.957 117.06C382.17 116.98 382.39 116.987 382.617 117.08C382.804 117.173 382.93 117.32 382.997 117.52C383.064 117.72 383.044 117.94 382.937 118.18L377.997 129.46C377.544 130.447 376.977 131.247 376.297 131.86C375.63 132.473 374.91 132.78 374.137 132.78ZM378.417 127.62C378.204 127.727 378.004 127.747 377.817 127.68C377.63 127.613 377.477 127.467 377.357 127.24L372.877 118.18C372.77 117.953 372.75 117.747 372.817 117.56C372.897 117.373 373.044 117.227 373.257 117.12C373.484 117.027 373.69 117.013 373.877 117.08C374.064 117.147 374.21 117.287 374.317 117.5L378.717 126.54C378.824 126.753 378.857 126.967 378.817 127.18C378.777 127.38 378.644 127.527 378.417 127.62ZM400.03 128C399.777 128 399.57 127.927 399.41 127.78C399.25 127.62 399.17 127.413 399.17 127.16V121.42C399.17 120.5 398.937 119.787 398.47 119.28C398.004 118.773 397.397 118.52 396.65 118.52C395.864 118.52 395.217 118.787 394.71 119.32C394.217 119.853 393.97 120.553 393.97 121.42H392.51C392.524 120.527 392.717 119.747 393.09 119.08C393.464 118.4 393.977 117.873 394.63 117.5C395.297 117.127 396.05 116.94 396.89 116.94C397.664 116.94 398.35 117.12 398.95 117.48C399.55 117.84 400.017 118.36 400.35 119.04C400.697 119.707 400.87 120.5 400.87 121.42V127.16C400.87 127.413 400.79 127.62 400.63 127.78C400.47 127.927 400.27 128 400.03 128ZM386.23 128C385.964 128 385.75 127.927 385.59 127.78C385.444 127.62 385.37 127.413 385.37 127.16V117.92C385.37 117.667 385.444 117.46 385.59 117.3C385.75 117.14 385.964 117.06 386.23 117.06C386.484 117.06 386.684 117.14 386.83 117.3C386.99 117.46 387.07 117.667 387.07 117.92V127.16C387.07 127.413 386.99 127.62 386.83 127.78C386.684 127.927 386.484 128 386.23 128ZM393.13 128C392.89 128 392.69 127.927 392.53 127.78C392.37 127.62 392.29 127.413 392.29 127.16V121.42C392.29 120.5 392.05 119.787 391.57 119.28C391.104 118.773 390.504 118.52 389.77 118.52C388.984 118.52 388.337 118.78 387.83 119.3C387.324 119.82 387.07 120.5 387.07 121.34H385.91C385.937 120.473 386.124 119.713 386.47 119.06C386.817 118.393 387.297 117.873 387.91 117.5C388.524 117.127 389.224 116.94 390.01 116.94C390.784 116.94 391.47 117.12 392.07 117.48C392.67 117.84 393.137 118.36 393.47 119.04C393.804 119.707 393.97 120.5 393.97 121.42V127.16C393.97 127.413 393.89 127.62 393.73 127.78C393.584 127.927 393.384 128 393.13 128ZM408.997 128.2C408.05 128.2 407.224 128.027 406.517 127.68C405.81 127.32 405.257 126.833 404.857 126.22C404.457 125.593 404.257 124.86 404.257 124.02V117.9C404.27 117.647 404.357 117.447 404.517 117.3C404.677 117.14 404.877 117.06 405.117 117.06C405.357 117.06 405.557 117.14 405.717 117.3C405.877 117.46 405.957 117.667 405.957 117.92V120.56H409.217C410.084 120.56 410.85 120.713 411.517 121.02C412.184 121.327 412.704 121.76 413.077 122.32C413.464 122.88 413.657 123.54 413.657 124.3C413.657 125.047 413.464 125.713 413.077 126.3C412.69 126.887 412.144 127.353 411.437 127.7C410.744 128.033 409.93 128.2 408.997 128.2ZM408.977 126.64C409.844 126.64 410.564 126.447 411.137 126.06C411.71 125.66 411.997 125.073 411.997 124.3C411.997 123.567 411.744 123.007 411.237 122.62C410.744 122.22 410.07 122.02 409.217 122.02H405.957V124C405.957 124.507 406.084 124.96 406.337 125.36C406.59 125.76 406.944 126.073 407.397 126.3C407.85 126.527 408.377 126.64 408.977 126.64ZM431.448 128C431.195 128 430.988 127.927 430.828 127.78C430.668 127.62 430.588 127.407 430.588 127.14V117.92C430.588 117.653 430.668 117.447 430.828 117.3C430.988 117.14 431.195 117.06 431.448 117.06C431.688 117.06 431.881 117.14 432.028 117.3C432.175 117.447 432.248 117.653 432.248 117.92V127.14C432.248 127.407 432.175 127.62 432.028 127.78C431.881 127.927 431.688 128 431.448 128ZM422.948 128C422.708 128 422.508 127.927 422.348 127.78C422.201 127.62 422.128 127.407 422.128 127.14V117.92C422.128 117.653 422.201 117.447 422.348 117.3C422.508 117.14 422.708 117.06 422.948 117.06C423.201 117.06 423.401 117.14 423.548 117.3C423.708 117.447 423.788 117.653 423.788 117.92V127.14C423.788 127.407 423.708 127.62 423.548 127.78C423.401 127.927 423.201 128 422.948 128ZM423.528 123.2V121.68H431.128V123.2H423.528ZM440.579 128.1C439.566 128.1 438.659 127.86 437.859 127.38C437.059 126.887 436.426 126.22 435.959 125.38C435.492 124.54 435.259 123.593 435.259 122.54C435.259 121.473 435.499 120.52 435.979 119.68C436.472 118.84 437.139 118.18 437.979 117.7C438.819 117.207 439.766 116.96 440.819 116.96C441.859 116.96 442.792 117.207 443.619 117.7C444.459 118.18 445.119 118.84 445.599 119.68C446.092 120.52 446.346 121.473 446.359 122.54L445.679 122.88C445.679 123.867 445.452 124.753 444.999 125.54C444.559 126.327 443.952 126.953 443.179 127.42C442.419 127.873 441.552 128.1 440.579 128.1ZM440.819 126.58C441.566 126.58 442.226 126.407 442.799 126.06C443.386 125.7 443.846 125.213 444.179 124.6C444.526 123.987 444.699 123.3 444.699 122.54C444.699 121.767 444.526 121.08 444.179 120.48C443.846 119.867 443.386 119.38 442.799 119.02C442.226 118.66 441.566 118.48 440.819 118.48C440.086 118.48 439.419 118.66 438.819 119.02C438.232 119.38 437.766 119.867 437.419 120.48C437.072 121.08 436.899 121.767 436.899 122.54C436.899 123.3 437.072 123.987 437.419 124.6C437.766 125.213 438.232 125.7 438.819 126.06C439.419 126.407 440.086 126.58 440.819 126.58ZM445.499 128C445.259 128 445.052 127.927 444.879 127.78C444.719 127.62 444.639 127.413 444.639 127.16V123.86L445.019 122.12L446.359 122.54V127.16C446.359 127.413 446.279 127.62 446.119 127.78C445.959 127.927 445.752 128 445.499 128ZM452.855 124.66C451.881 124.66 451.068 124.453 450.415 124.04C449.775 123.627 449.288 123.047 448.955 122.3C448.621 121.553 448.455 120.687 448.455 119.7V117.92C448.455 117.653 448.528 117.447 448.675 117.3C448.835 117.14 449.048 117.06 449.315 117.06C449.568 117.06 449.768 117.14 449.915 117.3C450.075 117.447 450.155 117.653 450.155 117.92V119.7C450.155 120.727 450.388 121.547 450.855 122.16C451.335 122.773 452.081 123.08 453.095 123.08C453.908 123.08 454.568 122.94 455.075 122.66C455.595 122.367 455.855 121.993 455.855 121.54H456.715C456.715 122.14 456.541 122.673 456.195 123.14C455.861 123.607 455.408 123.98 454.835 124.26C454.261 124.527 453.601 124.66 452.855 124.66ZM456.715 128C456.448 128 456.235 127.927 456.075 127.78C455.928 127.62 455.855 127.407 455.855 127.14V117.92C455.855 117.653 455.928 117.447 456.075 117.3C456.235 117.14 456.448 117.06 456.715 117.06C456.968 117.06 457.168 117.14 457.315 117.3C457.475 117.447 457.555 117.653 457.555 117.92V127.14C457.555 127.407 457.475 127.62 457.315 127.78C457.168 127.927 456.968 128 456.715 128ZM465.872 128.12C464.925 128.12 464.078 127.927 463.332 127.54C462.598 127.14 462.018 126.56 461.592 125.8C461.165 125.04 460.952 124.107 460.952 123V117.9C460.952 117.66 461.032 117.46 461.192 117.3C461.352 117.14 461.552 117.06 461.792 117.06C462.032 117.06 462.232 117.14 462.392 117.3C462.552 117.46 462.632 117.66 462.632 117.9V123C462.632 123.813 462.785 124.48 463.092 125C463.398 125.507 463.812 125.893 464.332 126.16C464.852 126.413 465.438 126.54 466.092 126.54C466.718 126.54 467.285 126.42 467.792 126.18C468.298 125.927 468.698 125.593 468.992 125.18C469.285 124.753 469.432 124.267 469.432 123.72H470.572C470.545 124.56 470.325 125.313 469.912 125.98C469.498 126.633 468.938 127.153 468.232 127.54C467.525 127.927 466.738 128.12 465.872 128.12ZM470.272 128C470.018 128 469.812 127.927 469.652 127.78C469.505 127.62 469.432 127.407 469.432 127.14V117.9C469.432 117.647 469.505 117.447 469.652 117.3C469.812 117.14 470.018 117.06 470.272 117.06C470.525 117.06 470.732 117.14 470.892 117.3C471.052 117.447 471.132 117.647 471.132 117.9V127.14C471.132 127.407 471.052 127.62 470.892 127.78C470.732 127.927 470.525 128 470.272 128ZM484.046 128C483.792 128 483.586 127.927 483.426 127.78C483.266 127.62 483.186 127.407 483.186 127.14V117.92C483.186 117.653 483.266 117.447 483.426 117.3C483.586 117.14 483.792 117.06 484.046 117.06C484.286 117.06 484.479 117.14 484.626 117.3C484.772 117.447 484.846 117.653 484.846 117.92V127.14C484.846 127.407 484.772 127.62 484.626 127.78C484.479 127.927 484.286 128 484.046 128ZM475.546 128C475.306 128 475.106 127.927 474.946 127.78C474.799 127.62 474.726 127.407 474.726 127.14V117.92C474.726 117.653 474.799 117.447 474.946 117.3C475.106 117.14 475.306 117.06 475.546 117.06C475.799 117.06 475.999 117.14 476.146 117.3C476.306 117.447 476.386 117.653 476.386 117.92V127.14C476.386 127.407 476.306 127.62 476.146 127.78C475.999 127.927 475.799 128 475.546 128ZM476.126 123.2V121.68H483.726V123.2H476.126ZM493.177 128.1C492.163 128.1 491.257 127.86 490.457 127.38C489.657 126.887 489.023 126.22 488.557 125.38C488.09 124.54 487.857 123.593 487.857 122.54C487.857 121.473 488.097 120.52 488.577 119.68C489.07 118.84 489.737 118.18 490.577 117.7C491.417 117.207 492.363 116.96 493.417 116.96C494.457 116.96 495.39 117.207 496.217 117.7C497.057 118.18 497.717 118.84 498.197 119.68C498.69 120.52 498.943 121.473 498.957 122.54L498.277 122.88C498.277 123.867 498.05 124.753 497.597 125.54C497.157 126.327 496.55 126.953 495.777 127.42C495.017 127.873 494.15 128.1 493.177 128.1ZM493.417 126.58C494.163 126.58 494.823 126.407 495.397 126.06C495.983 125.7 496.443 125.213 496.777 124.6C497.123 123.987 497.297 123.3 497.297 122.54C497.297 121.767 497.123 121.08 496.777 120.48C496.443 119.867 495.983 119.38 495.397 119.02C494.823 118.66 494.163 118.48 493.417 118.48C492.683 118.48 492.017 118.66 491.417 119.02C490.83 119.38 490.363 119.867 490.017 120.48C489.67 121.08 489.497 121.767 489.497 122.54C489.497 123.3 489.67 123.987 490.017 124.6C490.363 125.213 490.83 125.7 491.417 126.06C492.017 126.407 492.683 126.58 493.417 126.58ZM498.097 128C497.857 128 497.65 127.927 497.477 127.78C497.317 127.62 497.237 127.413 497.237 127.16V123.86L497.617 122.12L498.957 122.54V127.16C498.957 127.413 498.877 127.62 498.717 127.78C498.557 127.927 498.35 128 498.097 128ZM506.972 128.1C505.879 128.1 504.912 127.867 504.072 127.4C503.232 126.92 502.572 126.26 502.092 125.42C501.612 124.58 501.372 123.62 501.372 122.54C501.372 121.447 501.599 120.487 502.052 119.66C502.506 118.82 503.126 118.16 503.912 117.68C504.712 117.2 505.632 116.96 506.672 116.96C507.686 116.96 508.566 117.193 509.312 117.66C510.072 118.113 510.652 118.747 511.052 119.56C511.466 120.373 511.672 121.3 511.672 122.34C511.672 122.567 511.599 122.753 511.452 122.9C511.306 123.033 511.119 123.1 510.892 123.1H502.532V121.72H510.992L510.132 122.32C510.146 121.587 510.012 120.927 509.732 120.34C509.452 119.753 509.052 119.293 508.532 118.96C508.012 118.627 507.392 118.46 506.672 118.46C505.912 118.46 505.246 118.633 504.672 118.98C504.112 119.327 503.679 119.813 503.372 120.44C503.079 121.053 502.932 121.753 502.932 122.54C502.932 123.327 503.106 124.027 503.452 124.64C503.799 125.253 504.272 125.733 504.872 126.08C505.486 126.427 506.186 126.6 506.972 126.6C507.426 126.6 507.886 126.52 508.352 126.36C508.832 126.2 509.212 126 509.492 125.76C509.652 125.64 509.832 125.58 510.032 125.58C510.246 125.567 510.419 125.62 510.552 125.74C510.752 125.913 510.852 126.1 510.852 126.3C510.866 126.5 510.779 126.673 510.592 126.82C510.152 127.193 509.592 127.5 508.912 127.74C508.232 127.98 507.586 128.1 506.972 128.1ZM528.937 128C528.683 128 528.477 127.927 528.317 127.78C528.157 127.62 528.077 127.413 528.077 127.16V121.42C528.077 120.5 527.843 119.787 527.377 119.28C526.91 118.773 526.303 118.52 525.557 118.52C524.77 118.52 524.123 118.787 523.617 119.32C523.123 119.853 522.877 120.553 522.877 121.42H521.417C521.43 120.527 521.623 119.747 521.997 119.08C522.37 118.4 522.883 117.873 523.537 117.5C524.203 117.127 524.957 116.94 525.797 116.94C526.57 116.94 527.257 117.12 527.857 117.48C528.457 117.84 528.923 118.36 529.257 119.04C529.603 119.707 529.777 120.5 529.777 121.42V127.16C529.777 127.413 529.697 127.62 529.537 127.78C529.377 127.927 529.177 128 528.937 128ZM515.137 128C514.87 128 514.657 127.927 514.497 127.78C514.35 127.62 514.277 127.413 514.277 127.16V117.92C514.277 117.667 514.35 117.46 514.497 117.3C514.657 117.14 514.87 117.06 515.137 117.06C515.39 117.06 515.59 117.14 515.737 117.3C515.897 117.46 515.977 117.667 515.977 117.92V127.16C515.977 127.413 515.897 127.62 515.737 127.78C515.59 127.927 515.39 128 515.137 128ZM522.037 128C521.797 128 521.597 127.927 521.437 127.78C521.277 127.62 521.197 127.413 521.197 127.16V121.42C521.197 120.5 520.957 119.787 520.477 119.28C520.01 118.773 519.41 118.52 518.677 118.52C517.89 118.52 517.243 118.78 516.737 119.3C516.23 119.82 515.977 120.5 515.977 121.34H514.817C514.843 120.473 515.03 119.713 515.377 119.06C515.723 118.393 516.203 117.873 516.817 117.5C517.43 117.127 518.13 116.94 518.917 116.94C519.69 116.94 520.377 117.12 520.977 117.48C521.577 117.84 522.043 118.36 522.377 119.04C522.71 119.707 522.877 120.5 522.877 121.42V127.16C522.877 127.413 522.797 127.62 522.637 127.78C522.49 127.927 522.29 128 522.037 128ZM538.063 128.1C537.01 128.1 536.07 127.86 535.243 127.38C534.417 126.887 533.763 126.22 533.283 125.38C532.817 124.54 532.583 123.593 532.583 122.54C532.583 121.473 532.81 120.52 533.263 119.68C533.73 118.84 534.357 118.18 535.143 117.7C535.943 117.207 536.863 116.96 537.903 116.96C538.703 116.96 539.443 117.12 540.123 117.44C540.803 117.747 541.403 118.213 541.923 118.84C542.083 119.027 542.137 119.22 542.083 119.42C542.043 119.607 541.923 119.773 541.723 119.92C541.563 120.027 541.383 120.067 541.183 120.04C540.997 120 540.823 119.893 540.663 119.72C539.93 118.893 539.01 118.48 537.903 118.48C537.17 118.48 536.523 118.653 535.963 119C535.417 119.347 534.99 119.827 534.683 120.44C534.377 121.04 534.223 121.74 534.223 122.54C534.223 123.313 534.383 124.007 534.703 124.62C535.037 125.22 535.49 125.7 536.063 126.06C536.65 126.407 537.317 126.58 538.063 126.58C538.57 126.58 539.023 126.513 539.423 126.38C539.837 126.247 540.203 126.04 540.523 125.76C540.71 125.613 540.897 125.533 541.083 125.52C541.27 125.507 541.443 125.56 541.603 125.68C541.777 125.84 541.877 126.02 541.903 126.22C541.93 126.42 541.863 126.6 541.703 126.76C540.73 127.653 539.517 128.1 538.063 128.1ZM552.217 128C551.99 128 551.797 127.927 551.637 127.78C551.49 127.62 551.417 127.407 551.417 127.14V124.26H548.337V124.04C547.644 124.04 547.024 123.9 546.477 123.62C545.944 123.327 545.53 122.933 545.237 122.44C544.944 121.933 544.797 121.347 544.797 120.68C544.797 119.987 544.957 119.367 545.277 118.82C545.61 118.273 546.07 117.847 546.657 117.54C547.257 117.22 547.937 117.06 548.697 117.06H552.217C552.484 117.06 552.69 117.14 552.837 117.3C552.997 117.447 553.077 117.653 553.077 117.92V127.16C553.064 127.413 552.977 127.62 552.817 127.78C552.67 127.927 552.47 128 552.217 128ZM544.857 127.78C544.684 127.62 544.597 127.447 544.597 127.26C544.61 127.073 544.684 126.893 544.817 126.72L547.497 123.28L549.697 123.32L546.157 127.68C545.97 127.907 545.744 128.013 545.477 128C545.21 128 545.004 127.927 544.857 127.78ZM548.697 122.82H551.417V118.62H548.697C548.057 118.62 547.517 118.813 547.077 119.2C546.65 119.573 546.437 120.067 546.437 120.68C546.437 121.347 546.65 121.873 547.077 122.26C547.517 122.633 548.057 122.82 548.697 122.82ZM557.099 128.32C556.766 128.32 556.479 128.2 556.239 127.96C555.999 127.72 555.879 127.433 555.879 127.1C555.879 126.74 555.999 126.44 556.239 126.2C556.492 125.96 556.779 125.84 557.099 125.84C557.446 125.84 557.739 125.967 557.979 126.22C558.219 126.46 558.339 126.753 558.339 127.1C558.339 127.42 558.219 127.707 557.979 127.96C557.752 128.2 557.459 128.32 557.099 128.32Z" fill="#FB6020"/>
<defs>
<linearGradient id="paint0_linear_26_2" x1="127.5" y1="164" x2="127.5" y2="-2.18557e-08" gradientUnits="userSpaceOnUse">
<stop stop-color="#E2D4B0" stop-opacity="0"/>
<stop offset="0.5" stop-color="#E2D4B0" stop-opacity="0.7"/>
<stop offset="1" stop-color="#E2D4B0" stop-opacity="0"/>
</linearGradient>
</defs>
</svg>
